<?xml version="1.0" standalone="no"?>
<!DOCTYPE svg PUBLIC "-//W3C//DTD SVG 20010904//EN"
 "http://www.w3.org/TR/2001/REC-SVG-20010904/DTD/svg10.dtd">
<svg version="1.0" xmlns="http://www.w3.org/2000/svg"
 width="2089.000000pt" height="2062.000000pt" viewBox="0 0 2089.000000 2062.000000"
 preserveAspectRatio="xMidYMid meet">

<g transform="translate(0.000000,2062.000000) scale(0.100000,-0.100000)"
fill="#000000" stroke="none">
<path d="M10285 20126 c-358 -133 -1149 -472 -1620 -696 -464 -219 -1325 -688
-1943 -1059 -1433 -858 -2943 -1958 -4097 -2985 -216 -192 -802 -753 -1009
-967 -429 -441 -879 -999 -1118 -1383 l-68 -109 0 -106 c1 -400 95 -1274 220
-2040 258 -1573 759 -3399 1390 -5061 693 -1823 1460 -3311 2164 -4195 188
-236 232 -282 291 -304 211 -79 761 -229 1185 -325 1331 -299 3043 -471 4705
-471 1787 1 3443 171 4824 496 572 135 1043 286 1501 482 266 113 304 132 343
167 32 28 192 270 379 575 489 797 1050 2001 1526 3275 364 974 594 1682 835
2570 161 590 344 1422 452 2055 153 895 218 1558 219 2240 0 410 -15 668 -41
720 -31 59 -238 363 -348 510 -181 240 -516 639 -755 895 -295 316 -734 747
-1011 991 -59 52 -176 155 -260 230 -513 452 -1204 1004 -1779 1421 -176 127
-1635 1101 -1810 1208 -1134 693 -2142 1213 -3090 1592 -281 112 -893 339
-910 337 -3 0 -81 -29 -175 -63z m371 -400 c87 -30 197 -69 244 -86 47 -17
108 -39 135 -49 224 -82 697 -281 943 -397 52 -24 95 -44 97 -44 12 0 746
-361 770 -380 6 -4 82 -44 169 -89 893 -463 2135 -1246 3086 -1945 1751 -1287
3105 -2587 3828 -3675 134 -202 124 -166 143 -509 33 -624 -40 -1559 -192
-2432 -87 -497 -135 -735 -244 -1210 -36 -158 -174 -716 -195 -790 -10 -36
-35 -126 -55 -200 -44 -159 -138 -487 -161 -562 -34 -110 -63 -205 -77 -253
-35 -116 -144 -453 -204 -630 -36 -104 -73 -215 -83 -245 -38 -118 -211 -592
-276 -760 -14 -36 -37 -94 -51 -130 -52 -135 -201 -504 -238 -590 -13 -30 -44
-102 -68 -160 -39 -91 -124 -286 -189 -430 -11 -25 -38 -83 -60 -130 -22 -47
-58 -124 -79 -172 -100 -221 -419 -841 -574 -1113 -149 -263 -289 -494 -451
-742 -83 -128 -75 -122 -335 -234 -300 -128 -658 -254 -1007 -353 -208 -59
-643 -168 -742 -185 -25 -5 -146 -29 -270 -54 -665 -133 -1552 -252 -2215
-296 -487 -33 -605 -40 -745 -46 -865 -33 -1375 -33 -2275 0 -395 15 -1178 77
-1575 125 -91 11 -187 23 -215 26 -408 45 -1220 184 -1629 279 -390 90 -556
133 -856 222 -347 104 -310 85 -423 220 -569 682 -1151 1697 -1752 3058 -7 17
-27 64 -44 105 -18 41 -41 95 -51 120 -83 195 -184 445 -245 605 -14 39 -35
90 -45 115 -21 51 -140 371 -175 470 -13 36 -37 103 -55 150 -109 294 -350
1029 -470 1435 -17 61 -40 137 -50 170 -10 33 -30 103 -45 155 -14 52 -37 133
-50 180 -13 47 -36 130 -50 185 -15 55 -35 129 -45 165 -22 77 -165 664 -204
835 -15 66 -38 167 -52 225 -91 400 -207 1041 -279 1535 -68 470 -124 1053
-141 1460 l-5 140 123 185 c454 683 1150 1437 2088 2261 443 389 1130 943
1560 1256 47 34 141 104 210 154 236 174 695 492 1045 724 751 498 1417 895
2225 1329 513 276 1416 695 1855 861 33 13 110 42 170 65 61 23 142 53 180 67
39 14 90 33 115 43 25 10 57 19 71 19 14 1 97 -23 185 -53z"/>
<path d="M10363 18383 c-27 -4 -38 -14 -68 -62 -171 -282 -632 -561 -1066
-646 -109 -21 -152 -24 -306 -23 -194 2 -302 -10 -431 -47 -249 -72 -447 -188
-627 -369 -125 -125 -212 -248 -267 -376 -35 -82 -78 -225 -78 -261 0 -33 -19
-30 -81 16 -84 62 -192 111 -313 143 -92 24 -117 26 -286 26 -166 0 -197 -3
-300 -27 -332 -79 -614 -240 -855 -488 -103 -106 -174 -157 -310 -224 -375
-185 -927 -270 -1284 -199 l-26 6 0 -204 c0 -170 -4 -222 -23 -323 -84 -438
-280 -836 -493 -1000 -69 -53 -91 -78 -143 -155 -95 -142 -147 -260 -193 -436
-27 -104 -28 -119 -28 -334 1 -221 1 -227 33 -345 64 -242 158 -416 310 -577
l54 -57 -39 -7 c-106 -18 -207 -46 -286 -80 -301 -126 -591 -395 -763 -710
-99 -180 -141 -309 -184 -574 -65 -389 -167 -713 -320 -1015 -118 -233 -232
-384 -339 -450 -52 -32 -59 -41 -65 -77 l-7 -40 96 -90 c216 -205 449 -547
570 -839 87 -210 119 -340 134 -550 11 -150 20 -196 57 -314 132 -414 470
-739 864 -832 36 -8 116 -20 178 -26 l112 -12 -45 -60 c-65 -84 -138 -241
-175 -370 -120 -429 2 -957 297 -1276 99 -107 202 -256 317 -455 56 -98 175
-345 208 -434 92 -240 123 -347 143 -495 18 -125 14 -184 -20 -268 l-23 -59
71 9 c190 22 469 1 687 -52 369 -89 604 -200 874 -413 53 -42 191 -118 281
-155 529 -217 1205 -126 1558 212 26 25 47 43 47 41 1 -3 14 -56 30 -118 64
-249 208 -483 431 -697 126 -121 246 -205 409 -287 195 -99 340 -141 560 -163
376 -38 944 -237 1255 -439 99 -65 197 -155 219 -201 15 -31 21 -35 56 -35 49
0 70 8 70 27 0 23 108 130 180 177 270 178 779 347 1195 396 172 20 295 58
470 146 165 82 291 172 419 299 159 157 281 335 351 509 34 84 75 248 75 298
l0 37 65 -49 c183 -138 453 -210 740 -196 397 18 809 187 1135 465 75 65 122
95 235 150 430 212 886 310 1122 240 71 -21 72 -21 105 -2 l33 19 1 194 c2
162 6 219 27 332 75 402 212 714 391 893 293 292 464 659 507 1089 27 267 -49
573 -184 738 -26 32 -47 62 -47 67 0 5 24 15 53 21 69 16 229 99 314 162 201
149 390 379 512 624 79 159 141 351 162 499 85 626 441 1418 695 1548 25 13
33 24 38 59 6 37 4 45 -16 61 -112 88 -168 140 -227 210 -173 205 -321 480
-406 755 -41 130 -64 269 -75 440 -10 165 -32 262 -95 412 -190 454 -620 813
-1060 885 l-110 18 53 81 c56 86 100 204 123 336 19 104 17 341 -4 475 -57
364 -238 764 -478 1060 -198 244 -318 480 -400 790 -29 110 -32 134 -33 280 0
128 3 169 16 205 17 44 17 46 -5 78 l-22 33 -235 3 c-218 3 -245 6 -380 34
-294 63 -597 186 -765 310 -44 33 -123 102 -175 153 -187 185 -420 305 -706
364 -376 78 -762 -8 -991 -218 -48 -44 -49 -43 -56 43 -11 113 -84 289 -176
423 -53 77 -194 221 -276 284 -189 144 -408 247 -658 307 -141 35 -253 47
-452 50 -143 3 -187 8 -276 29 -425 105 -926 382 -1090 603 -22 30 -45 53 -52
52 -7 0 -26 -3 -44 -5z m241 -323 c272 -200 657 -373 980 -440 73 -15 137 -20
250 -20 429 -1 805 -134 1107 -393 211 -181 349 -447 349 -674 0 -83 0 -83
-109 -346 -60 -144 -161 -390 -226 -547 -64 -157 -128 -309 -141 -338 l-24
-54 -52 7 c-45 6 -66 18 -135 73 -46 36 -83 71 -83 77 0 20 188 485 235 580
76 157 105 268 105 415 0 394 -298 718 -764 830 -148 35 -219 43 -438 45 -119
2 -236 6 -260 10 -402 64 -807 302 -960 563 l-25 42 -62 -80 c-159 -205 -473
-415 -766 -511 l-100 -33 -255 -1 c-265 -1 -287 -3 -460 -37 -421 -82 -702
-316 -766 -638 -45 -228 45 -509 237 -742 28 -33 56 -92 100 -205 33 -87 65
-168 69 -179 8 -19 -7 -35 -110 -128 -66 -58 -128 -107 -140 -109 -18 -2 -52
68 -285 592 -290 651 -278 614 -254 761 63 399 406 766 849 909 147 47 251 61
460 61 205 0 306 13 470 59 362 102 732 332 919 569 l64 81 65 -66 c36 -36
106 -96 156 -133z m71 -592 c116 -77 311 -173 440 -217 168 -56 281 -74 465
-73 202 2 343 -11 477 -43 211 -50 376 -137 503 -265 131 -132 188 -258 197
-437 7 -135 -19 -253 -88 -394 -27 -56 -90 -204 -140 -330 -50 -126 -95 -231
-99 -234 -4 -3 -61 37 -126 88 -272 213 -790 619 -1524 1196 l-395 310 -66 1
-67 0 -408 -362 c-225 -200 -618 -548 -873 -775 -255 -227 -467 -410 -471
-408 -4 2 -35 76 -69 164 -47 121 -73 174 -106 213 -242 294 -299 629 -147
864 125 193 351 319 670 375 108 19 160 22 352 21 170 -1 245 3 305 15 273 54
627 255 848 481 l49 50 87 -87 c47 -48 131 -117 186 -153z m-74 -830 c119 -94
169 -139 169 -153 0 -11 -14 -204 -30 -430 -16 -225 -37 -509 -45 -630 -9
-121 -22 -303 -30 -405 -8 -102 -17 -234 -20 -295 -9 -167 -2 -155 -94 -155
l-78 0 -7 228 c-3 125 -13 569 -21 987 -8 418 -17 811 -19 873 -3 61 -3 112 0
112 3 0 82 -60 175 -132z m-361 -818 c6 -327 15 -741 19 -920 4 -179 8 -326 7
-327 -1 0 -47 -4 -103 -8 l-101 -7 -6 43 c-6 49 -28 274 -116 1164 -33 336
-62 628 -65 650 l-6 41 173 154 173 153 6 -174 c4 -96 12 -442 19 -769z m4216
886 c259 -64 478 -185 637 -352 256 -268 727 -459 1248 -505 73 -6 164 -9 201
-6 l68 6 -6 -82 c-3 -45 -7 -87 -9 -93 -7 -25 17 -233 36 -318 42 -179 126
-390 222 -560 55 -98 85 -141 199 -287 124 -160 193 -270 274 -435 181 -370
250 -795 178 -1099 -34 -143 -125 -299 -207 -355 -20 -14 -36 -31 -34 -38 1
-8 -222 -106 -633 -278 -349 -145 -644 -267 -656 -270 -15 -4 -28 3 -46 24
-21 25 -26 47 -37 156 -8 70 -11 129 -9 132 7 6 725 299 797 325 118 41 240
127 323 227 49 59 112 186 135 272 27 99 24 317 -5 435 -47 188 -156 387 -297
546 -44 49 -101 114 -126 145 -104 123 -218 401 -276 670 -26 119 -28 146 -28
357 l0 228 -55 -5 c-152 -15 -216 -17 -335 -7 -379 32 -751 151 -1021 326 -32
22 -115 96 -184 165 -229 230 -413 319 -661 320 -208 0 -387 -82 -539 -247
-110 -121 -186 -265 -249 -478 -12 -38 -54 -142 -94 -230 l-73 -160 -139 3
c-77 2 -143 7 -146 10 -4 4 33 102 81 217 48 116 151 364 229 553 78 188 152
352 164 365 12 12 40 44 62 71 108 133 331 246 545 277 30 4 125 6 210 4 122
-3 176 -9 256 -29z m-7350 -51 c112 -28 249 -97 323 -162 63 -55 41 -10 371
-752 168 -378 229 -525 220 -531 -20 -12 -260 -34 -269 -24 -17 20 -232 514
-252 579 -40 133 -109 252 -198 342 -271 275 -701 275 -1099 0 -42 -29 -140
-113 -218 -188 -155 -150 -238 -211 -389 -286 -195 -98 -392 -163 -610 -204
-145 -27 -375 -35 -476 -17 l-76 14 -6 -136 c-8 -201 -46 -365 -134 -585 -92
-230 -183 -373 -334 -530 -263 -273 -380 -517 -381 -795 -2 -278 116 -504 357
-686 79 -59 244 -141 350 -174 69 -21 200 -71 553 -210 l183 -72 -7 -117 c-6
-101 -10 -120 -31 -147 l-24 -32 -72 28 c-421 164 -1015 396 -1067 418 -122
51 -260 184 -359 345 -189 310 -233 723 -115 1084 51 158 171 357 245 408 63
45 176 169 241 268 201 306 338 758 338 1114 l0 118 162 -3 c279 -6 559 36
826 124 286 95 421 175 624 370 156 151 270 235 420 310 159 80 341 136 497
154 118 13 300 2 407 -25z m4062 -461 c103 -81 190 -149 194 -153 4 -4 -2 -58
-13 -121 -11 -63 -49 -281 -84 -485 -35 -203 -74 -422 -85 -485 -11 -63 -32
-182 -46 -265 -14 -82 -26 -150 -27 -151 -3 -2 -191 16 -234 22 -40 6 -40 -27
-8 397 41 563 74 1014 86 1192 11 173 14 195 24 195 4 0 90 -66 193 -146z
m-1483 64 c2 -13 12 -99 20 -193 9 -93 46 -474 84 -845 37 -371 67 -676 66
-678 -2 -2 -41 -9 -89 -15 -84 -13 -87 -13 -91 7 -3 12 -14 68 -24 126 -11 58
-49 263 -86 455 -102 541 -163 868 -167 894 -2 19 22 46 132 147 74 67 138
123 142 123 4 1 10 -9 13 -21z m4628 -27 c154 -40 308 -138 417 -265 192 -225
559 -404 1007 -490 143 -28 376 -49 488 -44 l70 3 6 -175 c8 -210 38 -377 106
-580 79 -239 157 -379 288 -521 153 -165 249 -313 305 -467 139 -383 25 -742
-283 -891 -45 -22 -235 -101 -422 -177 -470 -189 -435 -177 -435 -159 0 8 -11
103 -25 212 -13 109 -36 293 -50 408 -14 116 -37 302 -51 415 -36 296 -69 570
-104 855 -64 529 -80 649 -88 656 -4 3 -25 22 -48 42 l-41 36 -409 26 c-225
14 -553 34 -729 45 -176 11 -441 27 -590 35 -148 9 -305 19 -347 23 l-76 7 69
155 c38 85 81 196 95 245 33 119 120 294 186 375 172 208 415 293 661 231z
m-7341 -43 c103 -27 187 -78 268 -165 71 -76 133 -186 165 -293 9 -30 68 -170
129 -310 l113 -255 -41 -7 c-23 -4 -117 -17 -211 -28 -93 -11 -429 -52 -745
-90 -316 -39 -721 -88 -900 -110 -537 -66 -482 -54 -535 -111 -33 -36 -45 -56
-45 -79 0 -17 -7 -138 -15 -268 -8 -130 -28 -464 -45 -742 -17 -278 -39 -647
-50 -820 -11 -173 -22 -370 -26 -437 -4 -68 -10 -123 -15 -123 -7 0 -183 68
-474 183 -77 31 -167 63 -200 73 -348 99 -611 352 -655 628 -17 113 -18 131
-8 221 24 227 127 417 354 656 64 67 140 158 169 203 167 257 296 619 323 908
l7 77 175 5 c307 7 601 80 895 221 171 82 282 161 435 309 146 141 226 203
342 265 207 112 395 140 590 89z m4783 -455 c114 -91 149 -124 147 -139 -5
-27 -313 -1138 -317 -1143 -4 -3 -267 48 -272 53 -1 1 7 54 18 117 11 62 49
283 85 489 35 206 78 452 94 545 17 94 33 185 36 203 l5 33 27 -20 c15 -11 95
-73 177 -138z m-2486 -153 c79 -418 147 -779 179 -945 16 -82 28 -152 26 -154
-1 -1 -60 -16 -131 -31 -70 -16 -134 -30 -141 -32 -10 -2 -58 147 -178 552
-90 305 -165 561 -167 569 -2 16 345 332 354 322 4 -3 30 -130 58 -281z m2951
-212 c93 -73 129 -107 125 -118 -33 -88 -360 -897 -365 -903 -9 -11 -190 46
-190 60 0 6 65 246 145 533 80 287 145 523 145 526 0 10 18 -2 140 -98z
m-3417 -371 c65 -221 133 -454 152 -517 18 -63 31 -118 29 -122 -8 -12 -31 -9
-37 5 -2 6 -86 223 -186 480 l-182 468 48 44 c26 24 50 44 53 44 3 1 58 -180
123 -402z m-268 147 c99 -247 315 -811 315 -821 0 -6 -33 -22 -74 -36 l-73
-25 -51 122 c-28 66 -108 256 -177 421 l-126 300 68 62 c37 34 72 61 77 60 5
-2 24 -39 41 -83z m3943 21 l30 -25 -171 -428 c-93 -235 -171 -428 -173 -430
-5 -7 -84 21 -84 30 0 7 279 709 335 841 8 20 19 37 24 37 5 0 23 -11 39 -25z
m223 -137 c-46 -118 -297 -719 -308 -738 -23 -40 -14 -16 142 370 81 201 150
371 152 378 3 6 9 12 14 12 5 0 5 -10 0 -22z m302 6 c42 -3 77 -8 77 -10 0 -2
-91 -172 -203 -376 -112 -205 -224 -410 -248 -455 -24 -46 -47 -83 -50 -83
-18 0 -119 51 -119 60 0 9 81 208 270 665 34 83 68 164 75 182 13 31 15 32 67
27 29 -2 88 -6 131 -10z m-4695 -435 c101 -227 180 -415 175 -420 -13 -12
-234 -111 -239 -107 -8 8 -402 903 -399 906 4 4 203 30 245 31 l35 1 183 -411z
m5383 392 l67 -6 -170 -250 c-94 -137 -263 -386 -375 -553 l-205 -303 -51 31
c-29 17 -83 47 -120 66 -54 27 -67 39 -62 52 3 9 124 234 268 500 l262 483
160 -7 c88 -3 190 -9 226 -13z m549 -32 c91 -6 166 -13 168 -14 2 -2 -81 -106
-184 -232 -104 -125 -340 -416 -526 -645 l-338 -416 -89 60 -90 61 147 216
c80 119 223 329 317 466 93 138 211 310 260 383 l90 132 40 0 c22 0 114 -5
205 -11z m-6459 -496 c145 -262 265 -481 266 -487 3 -15 -266 -171 -276 -160
-4 5 -142 198 -306 429 -164 231 -332 467 -372 523 -41 57 -73 106 -71 107 3
3 433 60 479 64 11 1 97 -145 280 -476z m7192 451 c133 -9 243 -17 245 -18 1
-2 -64 -72 -145 -157 -286 -299 -1199 -1254 -1263 -1321 l-65 -69 -105 86
c-58 47 -106 89 -108 93 -3 10 214 280 773 962 115 140 243 297 285 347 67 83
79 93 108 93 18 0 142 -7 275 -16z m-7991 -342 c108 -152 292 -410 407 -572
116 -162 210 -299 210 -305 0 -5 -50 -45 -110 -89 l-111 -79 -23 24 c-13 13
-260 296 -550 629 -462 530 -524 605 -504 609 46 7 454 59 469 60 9 0 98 -117
212 -277z m-376 -474 c313 -359 579 -664 591 -678 l21 -26 -88 -77 c-49 -42
-91 -77 -95 -77 -3 0 -176 163 -383 363 -207 199 -545 523 -749 720 -205 196
-373 361 -373 365 -1 8 380 59 456 61 l51 1 569 -652z m8798 416 c24 -199 26
-238 15 -249 -14 -12 -315 -277 -993 -873 l-380 -333 -75 75 -75 75 54 58 c29
32 99 105 155 163 103 107 812 849 1101 1152 87 93 162 168 165 168 3 0 18
-106 33 -236z m-9278 -688 c406 -390 745 -714 752 -721 10 -9 1 -24 -45 -73
l-58 -62 -161 133 c-154 126 -326 267 -964 787 -157 127 -291 235 -298 239
-18 10 5 413 23 409 7 -2 344 -322 751 -712z m4784 624 c480 -46 928 -154
1365 -327 983 -390 1804 -1082 2346 -1979 328 -544 533 -1136 620 -1794 26
-201 37 -677 20 -900 -59 -772 -312 -1516 -738 -2164 -818 -1247 -2183 -2042
-3703 -2157 -252 -19 -750 -6 -985 25 -1094 145 -2045 604 -2809 1354 -755
741 -1227 1688 -1357 2717 -111 891 43 1801 443 2599 237 473 511 852 892
1231 515 513 1108 887 1792 1130 386 138 836 235 1219 265 71 6 150 12 175 14
79 7 611 -3 720 -14z m4576 -606 c12 -93 25 -201 29 -240 l7 -71 -84 -60 c-45
-32 -305 -220 -576 -416 -272 -196 -495 -357 -497 -357 -2 0 -43 48 -91 106
-73 89 -85 109 -73 118 19 14 364 317 859 754 212 188 389 339 395 338 5 -1
19 -79 31 -172z m-9491 -500 c569 -464 644 -528 633 -543 -65 -82 -113 -135
-122 -133 -5 2 -77 49 -160 106 -83 56 -349 235 -591 396 -242 161 -443 296
-448 300 -4 3 -2 97 5 209 9 157 14 201 24 197 7 -3 304 -242 659 -532z m9565
-87 c0 -18 9 -102 20 -187 28 -220 32 -202 -47 -246 -62 -34 -468 -264 -771
-437 -68 -38 -127 -66 -131 -61 -37 43 -141 208 -134 214 4 4 121 89 258 188
138 99 371 268 520 375 148 108 273 193 277 191 5 -3 8 -20 8 -37z m-9715
-393 c381 -255 543 -369 538 -378 -49 -81 -148 -226 -153 -226 -9 0 -952 509
-963 519 -11 10 14 451 25 451 4 0 253 -165 553 -366z m9789 -241 c13 -45 29
-244 20 -253 -5 -5 -94 -43 -199 -86 -104 -42 -289 -117 -410 -166 -121 -49
-224 -90 -228 -91 -4 -1 -22 24 -40 56 -27 49 -30 59 -17 67 50 31 856 489
862 489 4 1 9 -7 12 -16z m-9939 -310 c231 -124 423 -228 427 -230 5 -3 -46
-110 -67 -141 -2 -2 -152 56 -707 275 l-118 47 0 36 c0 20 3 85 7 144 5 92 8
106 22 101 9 -3 205 -108 436 -232z m11929 162 c316 -80 623 -324 816 -647
102 -172 169 -388 170 -548 1 -434 262 -1017 604 -1349 47 -46 86 -85 86 -86
0 -2 -33 -36 -74 -76 -245 -246 -497 -831 -605 -1409 -62 -329 -95 -436 -191
-619 -186 -351 -464 -614 -744 -700 -92 -28 -116 -27 -221 14 -100 40 -505
198 -1075 420 -206 80 -378 149 -381 153 -8 8 168 236 185 240 6 1 121 -38
255 -88 169 -63 271 -108 332 -145 103 -61 208 -107 317 -137 116 -32 346 -32
457 1 225 65 414 209 547 416 63 97 91 155 132 274 52 150 76 282 86 476 8
139 15 190 39 281 81 297 235 584 411 768 50 53 80 91 72 93 -6 3 -38 24 -70
47 -96 71 -185 191 -275 372 -135 271 -201 532 -217 859 -10 211 -35 325 -104
471 -129 273 -327 447 -603 531 -79 23 -104 26 -238 26 -132 0 -161 -3 -240
-27 -49 -14 -144 -53 -210 -85 -117 -58 -657 -265 -675 -259 -11 4 -182 199
-178 204 2 2 292 123 643 270 352 146 644 273 649 281 12 22 173 11 300 -22z
m-13842 -180 c18 -8 272 -108 563 -221 292 -113 533 -209 537 -213 5 -4 -33
-59 -82 -123 l-91 -116 -77 28 c-42 15 -170 60 -283 99 -113 39 -244 91 -291
115 -117 61 -210 80 -351 73 -174 -8 -307 -53 -466 -158 -179 -118 -334 -297
-440 -509 -74 -148 -97 -224 -111 -375 -51 -522 -295 -1082 -545 -1246 -62
-41 -65 -45 -65 -84 0 -38 4 -43 61 -85 232 -169 457 -542 524 -870 11 -51 19
-142 20 -230 7 -340 107 -586 322 -791 175 -167 384 -249 636 -249 173 0 354
42 502 118 66 33 658 273 666 270 9 -4 219 -241 219 -248 0 -13 -1270 -533
-1335 -547 -105 -22 -295 -13 -405 20 -115 35 -190 69 -287 132 -254 166 -445
452 -503 756 -6 30 -15 113 -20 186 -11 148 -28 241 -67 358 -118 362 -359
758 -624 1028 l-77 78 84 81 c265 254 523 865 614 1451 27 172 46 255 81 348
177 482 612 869 1055 939 77 12 194 4 236 -15z m11905 -97 c6 -43 6 -67 -1
-75 -13 -13 -732 -323 -751 -323 -11 0 -80 129 -73 135 2 1 95 40 208 85 113
46 291 118 395 161 105 42 195 78 202 78 6 1 15 -25 20 -61z m-10197 -145 c91
-35 245 -96 342 -134 l178 -70 -25 -50 c-14 -27 -28 -49 -30 -49 -3 0 -76 29
-163 64 -460 188 -575 236 -577 238 -2 2 -1 26 2 55 l5 52 52 -21 c28 -11 125
-49 216 -85z m12030 -57 c154 -41 307 -130 401 -234 159 -176 259 -428 259
-655 0 -288 82 -628 220 -912 72 -148 138 -249 224 -342 l66 -71 -46 -54
c-106 -123 -238 -353 -311 -540 -78 -204 -113 -360 -113 -512 0 -117 -31 -307
-70 -425 -109 -335 -331 -571 -612 -651 -230 -66 -495 -16 -733 137 -36 23
-155 74 -295 127 -129 48 -238 91 -242 94 -4 4 63 97 149 207 150 192 427 547
1045 1340 l288 369 -6 66 c-4 36 -12 72 -19 80 -11 13 -232 265 -709 805 -513
580 -721 818 -724 824 -1 4 116 52 260 106 145 54 304 119 353 146 165 87 301
121 460 114 55 -2 125 -11 155 -19z m-1606 -233 c47 -53 83 -99 81 -103 -5 -9
-874 -334 -878 -329 -15 21 -73 196 -67 202 7 8 757 325 772 326 4 1 45 -42
92 -96z m-11979 48 c33 -12 80 -34 105 -49 25 -16 160 -68 300 -117 140 -48
265 -93 278 -99 22 -11 16 -20 -165 -251 -271 -348 -524 -672 -911 -1168
l-342 -439 0 -66 0 -67 253 -286 c138 -157 373 -422 521 -590 650 -735 751
-851 751 -861 0 -7 -135 -66 -300 -133 -165 -67 -322 -133 -350 -147 -142 -72
-296 -103 -472 -95 -134 5 -205 22 -312 73 -220 103 -375 284 -454 529 -37
114 -47 184 -52 357 -4 168 -22 271 -76 424 -83 237 -215 450 -385 623 l-113
113 78 77 c239 233 444 732 496 1208 20 173 28 209 70 307 147 342 433 602
739 672 88 20 263 12 341 -15z m1277 -75 c197 -77 491 -192 564 -221 l72 -27
-41 -117 c-22 -64 -41 -117 -42 -119 -1 -1 -128 42 -281 97 -154 54 -340 120
-414 146 -74 26 -139 50 -143 55 -7 6 157 230 169 230 2 0 54 -20 116 -44z
m10873 -166 c5 -8 -112 -51 -139 -49 -8 0 108 52 131 58 1 1 4 -3 8 -9z
m-10917 -216 c166 -59 301 -108 299 -110 -2 -3 -612 158 -643 170 -16 6 -16 8
1 26 10 11 23 20 29 20 6 0 147 -48 314 -106z m11207 -112 c70 -79 125 -145
123 -148 -2 -2 -101 -21 -219 -43 -321 -59 -468 -87 -758 -142 -145 -27 -265
-48 -266 -47 -8 11 -55 211 -51 215 3 3 47 18 98 33 51 15 260 78 463 140 448
136 457 139 471 137 6 -1 69 -66 139 -145z m-11585 -31 c58 -16 193 -53 300
-82 107 -28 276 -74 375 -100 99 -27 185 -49 192 -49 22 0 24 -20 9 -73 -8
-28 -20 -80 -27 -114 -8 -46 -16 -63 -28 -63 -9 0 -227 34 -486 75 -258 42
-519 83 -580 93 -65 10 -110 22 -110 29 0 13 233 313 243 313 3 0 54 -13 112
-29z m12034 -478 c86 -98 153 -179 149 -180 -5 -1 -84 -9 -178 -18 -93 -9
-330 -31 -525 -50 -792 -77 -920 -88 -926 -82 -8 8 -47 247 -41 253 5 5 409
83 1007 193 91 17 199 37 240 45 41 8 85 15 96 15 16 1 64 -47 178 -176z
m-11899 -102 c308 -49 583 -93 610 -98 28 -5 49 -13 49 -18 -1 -6 -8 -63 -15
-129 l-13 -119 -126 7 c-69 4 -280 18 -470 31 -190 13 -482 34 -650 46 -168
11 -306 22 -308 24 -2 2 58 83 134 180 l138 177 45 -5 c25 -4 298 -47 606 -96z
m12375 -436 c80 -91 146 -169 148 -174 3 -9 -266 -16 -1168 -31 -311 -5 -641
-11 -735 -12 l-170 -3 -8 104 c-4 57 -6 106 -3 108 2 2 114 15 248 28 552 55
667 66 973 95 176 17 354 34 395 39 41 5 98 9 125 9 l50 1 145 -164z m-13135
-40 c877 -59 1368 -94 1371 -98 2 -2 1 -62 -3 -134 l-6 -131 -121 -6 c-163 -8
-1886 -39 -1890 -35 -2 2 71 100 162 217 l166 213 51 -6 c27 -3 149 -12 270
-20z m13263 -354 c-1 -6 -61 -85 -132 -176 l-129 -166 -51 6 c-28 3 -222 17
-431 30 -209 14 -434 29 -500 35 -66 5 -272 19 -458 32 -186 12 -342 25 -348
29 -7 4 -8 36 -3 91 l7 85 266 6 c146 4 561 12 921 17 360 6 680 12 710 14
131 6 151 6 148 -3z m-11890 -288 l3 -62 -43 -5 c-24 -3 -164 -17 -313 -31
-148 -14 -382 -37 -520 -50 -597 -58 -775 -75 -860 -80 l-90 -6 -112 128 c-61
70 -109 130 -107 132 6 6 1612 38 1844 37 l195 -1 3 -62z m10146 -153 c160
-11 415 -29 566 -40 151 -11 383 -27 515 -36 132 -8 242 -17 244 -19 6 -6
-232 -307 -247 -313 -8 -2 -73 5 -145 16 -73 12 -359 58 -637 102 -278 44
-536 85 -574 91 l-68 11 6 67 c12 120 17 141 34 141 9 0 147 -9 306 -20z
m-10109 -200 c4 -36 13 -103 21 -149 8 -46 13 -85 11 -87 -5 -5 -313 -64 -881
-169 -390 -72 -471 -85 -481 -73 -50 52 -345 392 -345 398 0 3 127 18 283 33
155 15 422 41 592 57 171 17 416 41 545 53 163 16 237 20 241 13 4 -6 10 -40
14 -76z m9983 -229 c136 -22 420 -67 632 -101 212 -34 395 -64 406 -68 19 -6
6 -27 -138 -212 -88 -113 -166 -206 -173 -208 -13 -3 -86 16 -635 164 -157 42
-314 84 -350 94 -52 13 -65 20 -64 36 2 25 68 334 72 334 2 0 114 -18 250 -39z
m-9871 -334 c17 -67 34 -129 38 -138 5 -13 -16 -23 -117 -52 -68 -21 -294 -89
-503 -152 -296 -89 -383 -112 -392 -102 -6 7 -75 84 -152 172 -116 131 -138
161 -124 167 10 3 158 32 328 63 303 55 825 152 855 159 8 2 20 4 25 5 6 0 24
-54 42 -122z m9566 -196 c39 -11 250 -67 467 -126 217 -58 403 -108 413 -113
15 -6 11 -14 -28 -64 -25 -32 -50 -58 -55 -58 -14 0 -873 322 -883 331 -9 7
-1 49 9 49 2 0 37 -9 77 -19z m171 -237 c138 -53 320 -121 404 -152 83 -31
152 -61 152 -67 0 -15 -160 -215 -172 -215 -12 0 -750 300 -761 309 -4 4 9 52
28 107 20 54 38 105 40 113 7 18 20 14 309 -95z m-9640 76 c-9 -9 -745 -311
-813 -333 -32 -11 -35 -9 -62 23 -16 19 -29 37 -29 40 0 4 876 273 910 279 2
1 0 -3 -6 -9z m93 -210 c23 -57 42 -104 40 -105 -17 -11 -715 -305 -724 -305
-10 0 -164 170 -171 189 -3 9 788 332 803 327 5 -1 28 -49 52 -106z m9468
-335 c209 -85 381 -155 383 -155 7 0 -4 -169 -11 -176 -8 -8 -815 324 -824
339 -6 10 56 147 67 147 3 0 177 -70 385 -155z m-9281 -66 c32 -61 56 -112 54
-115 -8 -7 -815 -364 -825 -364 -9 0 -47 260 -39 267 4 5 739 321 746 322 3 1
32 -49 64 -110z m9161 -179 c176 -73 356 -147 400 -165 l80 -33 3 -57 c2 -44
0 -56 -10 -52 -20 8 -791 425 -808 437 -13 10 -13 10 0 7 8 -3 159 -64 335
-137z m967 -5 c134 -52 313 -122 398 -155 85 -33 252 -99 370 -145 118 -46
284 -110 368 -143 l152 -60 84 -85 c70 -70 92 -101 130 -178 72 -150 90 -240
91 -454 0 -151 -4 -197 -23 -285 -34 -155 -75 -273 -147 -417 -79 -160 -166
-284 -275 -393 -103 -102 -160 -180 -233 -320 -144 -274 -232 -619 -244 -958
-5 -132 -9 -162 -20 -158 -7 3 -51 10 -98 16 -228 28 -630 -59 -969 -211 -170
-76 -290 -147 -369 -217 -211 -187 -512 -340 -802 -408 -112 -26 -135 -28
-335 -29 -204 0 -220 1 -313 27 -169 48 -333 144 -413 244 -17 22 -49 80 -71
129 -232 519 -483 1085 -485 1096 -2 10 28 18 127 31 197 27 177 37 252 -127
35 -77 82 -192 105 -255 22 -63 49 -133 60 -155 45 -89 130 -207 200 -277 391
-390 1001 -381 1463 21 221 193 565 348 970 437 86 19 161 28 266 31 l147 6
-5 96 c-9 161 32 344 127 567 87 207 248 443 365 537 112 90 235 335 286 568
33 153 31 347 -5 484 -70 272 -240 485 -481 605 -93 46 -253 100 -296 100 -17
0 -161 56 -309 120 -25 11 -110 46 -190 79 l-145 60 3 73 c3 93 12 198 17 198
2 0 114 -43 247 -95z m-962 -283 c250 -135 457 -249 460 -253 6 -9 -15 -368
-23 -375 -4 -5 -388 248 -934 616 l-121 82 61 98 c56 89 64 97 82 88 11 -6
225 -121 475 -256z m-10176 171 c17 -112 37 -275 34 -279 -16 -15 -366 -168
-413 -180 -295 -74 -540 -216 -684 -397 -71 -90 -116 -172 -153 -278 -32 -91
-33 -99 -33 -249 1 -150 2 -158 34 -254 39 -113 104 -227 188 -328 147 -178
263 -358 376 -584 202 -404 291 -754 246 -964 -6 -28 -9 -53 -7 -56 2 -2 20 1
39 6 109 33 324 28 504 -9 237 -50 523 -171 668 -283 225 -174 339 -240 505
-292 240 -75 504 -73 737 7 303 104 548 354 651 664 38 116 154 436 162 450 5
8 48 9 172 1 91 -6 169 -14 173 -18 5 -4 -91 -250 -214 -546 -166 -404 -232
-552 -262 -592 -130 -172 -387 -311 -682 -369 -137 -27 -415 -25 -560 5 -146
29 -249 63 -370 122 -100 48 -123 64 -292 193 -143 109 -410 233 -659 306
-213 62 -462 101 -651 101 l-113 0 0 73 c0 273 -149 709 -387 1130 -76 135
-210 331 -284 414 -169 189 -273 389 -326 628 -21 96 -28 338 -14 450 15 114
74 289 132 390 25 46 79 115 127 166 68 71 94 92 145 112 34 14 121 50 192 80
494 205 786 326 885 368 63 26 118 48 122 49 3 0 9 -17 12 -37z m1250 -110
c35 -54 86 -129 112 -167 l49 -69 -25 -18 c-60 -44 -959 -694 -998 -721 -30
-20 -43 -25 -46 -16 -8 26 -70 568 -65 571 2 2 162 93 354 202 193 109 395
224 450 256 55 32 101 58 102 59 2 0 31 -44 67 -97z m9919 -187 c153 -63 305
-120 339 -126 88 -16 224 -66 299 -110 270 -159 414 -421 412 -750 -1 -186
-42 -340 -141 -535 -49 -95 -69 -122 -148 -200 -154 -152 -245 -280 -344 -487
-97 -204 -154 -400 -167 -576 -3 -54 -11 -95 -17 -97 -6 -1 -65 -8 -131 -14
-238 -22 -589 -128 -838 -252 -135 -68 -236 -133 -342 -221 -204 -169 -361
-248 -562 -283 -459 -80 -868 181 -1022 653 -16 48 -56 147 -90 220 -64 139
-68 152 -50 152 11 0 159 18 784 95 384 47 1012 124 1240 152 l230 27 48 46
48 45 14 230 c8 127 26 421 40 655 14 234 37 605 50 825 13 220 27 456 30 525
7 140 10 154 28 147 6 -3 137 -57 290 -121z m-10864 21 c-28 -21 -59 -36 -59
-29 0 9 37 30 54 31 5 1 7 0 5 -2z m9721 -385 l575 -387 -4 -85 c-1 -47 -8
-165 -15 -264 l-11 -178 -440 358 c-812 663 -865 706 -865 713 0 3 19 29 41
56 23 28 62 78 86 113 25 34 48 62 51 61 4 0 266 -174 582 -387z m-9975 246
c2 -13 14 -102 25 -198 19 -159 58 -478 125 -1025 13 -110 49 -407 80 -660 31
-253 60 -469 66 -480 6 -11 30 -36 54 -56 l42 -35 214 -13 c225 -13 744 -44
1414 -86 220 -14 462 -28 538 -31 75 -4 137 -11 137 -15 0 -4 -14 -45 -31 -91
-17 -46 -55 -155 -86 -243 -88 -258 -151 -365 -291 -496 -124 -116 -274 -195
-448 -236 -124 -28 -358 -24 -485 10 -179 47 -339 128 -469 236 -150 126 -330
222 -551 296 -206 68 -356 95 -533 95 l-146 0 0 73 c0 131 -45 330 -119 527
-134 360 -304 658 -543 951 -429 526 -135 1165 617 1339 28 6 120 45 205 85
85 40 161 74 167 74 7 1 15 -9 18 -21z m1570 -189 c43 -49 76 -91 74 -93 -2
-1 -287 -251 -632 -555 -346 -304 -630 -551 -632 -549 -10 10 -58 449 -49 457
21 21 1148 831 1155 831 4 0 42 -41 84 -91z m7650 -176 c61 -49 256 -208 435
-354 179 -146 438 -356 575 -468 138 -112 256 -209 263 -215 10 -10 11 -48 2
-192 -5 -98 -13 -203 -16 -232 l-6 -53 -121 118 c-183 177 -1314 1261 -1370
1313 l-49 45 72 78 c64 68 75 76 89 64 9 -8 66 -54 126 -104z m-7355 -138 l74
-74 -59 -63 c-33 -35 -161 -169 -285 -298 -124 -130 -427 -448 -675 -708
l-450 -472 -7 38 c-5 20 -19 127 -32 237 l-24 200 61 55 c77 69 321 284 732
645 176 154 378 333 450 397 71 64 132 117 135 118 3 0 39 -34 80 -75z m7235
-341 c706 -675 1240 -1191 1243 -1199 3 -9 -371 -63 -443 -64 -26 0 -41 12
-105 88 -41 48 -320 368 -618 711 -299 342 -540 625 -535 630 4 4 39 35 76 70
l69 62 41 -39 c23 -21 146 -138 272 -259z m-6906 50 c71 -59 79 -69 67 -83 -7
-9 -91 -113 -186 -231 -131 -162 -729 -895 -946 -1158 l-20 -25 -235 13 c-129
7 -238 16 -242 20 -4 4 103 124 239 266 748 782 879 919 979 1024 61 63 140
146 175 183 35 37 69 66 76 63 7 -3 49 -35 93 -72z m6432 -194 c79 -91 232
-266 339 -390 107 -123 299 -343 427 -489 128 -146 229 -269 225 -272 -6 -5
-437 -60 -468 -59 -14 0 -866 1195 -868 1216 -1 13 182 165 195 161 3 -1 71
-76 150 -167z m-6109 -47 c37 -25 68 -48 68 -50 0 -6 -666 -989 -804 -1186
l-41 -59 -130 7 c-71 4 -156 10 -188 13 l-57 7 286 350 c158 193 388 476 512
630 223 278 271 335 280 335 3 0 36 -21 74 -47z m5965 -595 c208 -293 389
-547 401 -565 l23 -32 -23 -5 c-13 -3 -122 -16 -243 -31 -121 -14 -232 -27
-247 -30 -31 -5 -41 7 -100 115 -52 96 -457 829 -480 869 -10 18 -18 34 -16
36 2 1 57 34 123 73 66 39 129 78 140 86 11 9 25 16 32 16 6 0 182 -240 390
-532z m-5679 413 c15 -10 62 -37 105 -61 42 -23 77 -43 77 -45 0 -4 -438 -807
-517 -947 -47 -86 -57 -98 -81 -98 -46 0 -397 22 -400 25 -2 2 103 161 235
354 131 193 305 450 387 571 82 121 153 220 159 220 5 0 21 -8 35 -19z m4966
-431 c130 -236 326 -639 326 -669 0 -13 -14 -16 -175 -35 -71 -9 -132 -12
-136 -8 -8 10 -389 870 -389 880 0 9 189 100 210 101 10 0 69 -97 164 -269z
m-4732 -111 c-77 -184 -166 -400 -198 -481 l-59 -148 -67 0 c-38 0 -68 3 -68
6 0 3 96 182 214 398 117 215 234 431 261 479 26 48 49 86 52 84 2 -3 -59
-155 -135 -338z m339 255 c46 -20 88 -40 92 -44 7 -6 -314 -830 -335 -856 -8
-11 -71 -11 -195 2 l-52 5 13 37 c13 34 215 525 321 780 26 61 53 112 60 112
6 0 49 -16 96 -36z m3929 -519 c110 -264 180 -442 176 -452 -4 -10 -10 -13
-15 -7 -5 5 -52 110 -106 234 -53 124 -138 318 -187 432 -49 114 -87 212 -83
217 3 6 12 11 19 11 8 0 89 -180 196 -435z m-3502 359 c59 -19 108 -37 109
-38 2 -1 -29 -117 -68 -257 -81 -294 -244 -743 -266 -735 -7 3 -66 47 -131 98
-64 50 -119 93 -121 95 -2 1 30 85 71 185 234 571 284 688 291 688 4 0 56 -16
115 -36z m3255 -139 c38 -88 127 -294 199 -459 71 -164 126 -302 121 -306 -4
-5 -64 -58 -133 -119 -86 -76 -127 -106 -132 -97 -4 7 -16 43 -26 82 -11 38
-32 110 -47 159 -14 50 -37 126 -50 170 -13 44 -62 212 -110 373 -47 162 -84
297 -80 300 10 10 159 60 174 58 9 0 43 -67 84 -161z m-403 -155 c26 -91 103
-351 170 -579 117 -399 121 -414 103 -431 -72 -68 -305 -271 -307 -268 -2 1
-16 68 -30 148 -15 80 -56 296 -91 480 -135 715 -147 780 -142 794 3 8 33 19
69 25 35 6 86 17 113 24 60 16 48 36 115 -193z m-2416 175 c60 -13 110 -26
113 -29 7 -6 9 6 -127 -771 -34 -192 -69 -392 -77 -442 -9 -51 -20 -93 -25
-93 -7 0 -181 133 -292 223 l-29 24 112 404 c62 222 132 473 155 556 22 84 46
153 51 153 6 0 59 -11 119 -25z m1960 -330 c25 -132 61 -325 81 -430 20 -104
42 -224 50 -265 7 -41 34 -183 59 -316 25 -133 46 -250 46 -261 0 -14 -56 -71
-170 -172 -93 -83 -171 -151 -174 -151 -8 0 -8 -3 -122 1148 -36 370 -64 675
-61 678 3 3 56 13 119 23 101 15 114 15 120 1 4 -8 28 -123 52 -255z m-1491
248 l127 -17 0 -28 c0 -15 -9 -148 -20 -295 -11 -147 -31 -425 -45 -618 -34
-471 -56 -759 -58 -761 -2 -2 -374 290 -391 306 -8 8 -4 35 74 480 22 129 52
298 65 375 13 77 34 192 45 255 11 63 28 161 37 218 9 56 22 102 27 102 6 0
68 -8 139 -17z m656 -48 c6 -6 11 -201 26 -965 8 -415 18 -869 22 -1009 l6
-254 -189 148 c-355 278 -323 249 -318 292 2 21 13 164 24 318 11 154 36 501
55 770 19 270 38 526 41 570 3 44 7 95 10 114 l5 33 157 -7 c86 -4 159 -9 161
-10z m335 -7 c3 -13 24 -212 46 -443 23 -231 66 -664 96 -963 30 -299 54 -547
54 -551 0 -5 -60 -62 -132 -126 l-132 -118 -7 34 c-4 19 -10 194 -13 389 -4
195 -11 542 -16 770 -5 228 -12 553 -16 723 l-6 307 61 0 c55 0 61 -2 65 -22z
m2349 -1282 c276 -622 277 -623 277 -693 0 -359 -275 -783 -671 -1032 -169
-106 -348 -168 -574 -201 -321 -46 -605 -121 -865 -227 -206 -85 -412 -207
-498 -296 l-43 -44 -59 57 c-203 199 -704 427 -1187 539 -165 38 -237 51 -289
51 -70 0 -213 29 -320 65 -460 153 -853 547 -979 980 -14 50 -28 126 -32 170
l-5 80 97 235 c53 129 151 365 216 525 66 159 121 291 124 293 8 8 265 -200
265 -215 0 -31 -90 -255 -120 -298 -48 -69 -117 -221 -146 -320 -36 -122 -44
-313 -20 -436 34 -168 112 -314 236 -439 190 -193 399 -283 726 -315 401 -38
710 -116 990 -250 202 -95 354 -214 385 -299 13 -36 18 -38 96 -49 6 -1 30 26
53 60 130 196 459 392 798 477 136 34 233 46 385 46 584 0 1001 425 1000 1020
0 223 -39 374 -166 647 -41 87 -96 208 -122 270 l-48 112 53 48 c53 48 78 60
136 62 l30 1 277 -624z m-551 387 c84 -193 135 -308 165 -367 132 -262 163
-589 81 -846 -74 -231 -233 -417 -444 -520 -131 -65 -210 -81 -439 -90 -139
-5 -232 -14 -304 -29 -321 -67 -645 -231 -836 -425 l-90 -91 -70 71 c-240 245
-761 432 -1365 489 -189 18 -301 47 -435 115 -217 108 -358 271 -427 490 -20
65 -23 96 -23 225 0 127 4 162 23 228 30 101 71 192 132 292 27 44 66 125 86
180 20 55 40 104 45 109 5 6 18 2 31 -11 19 -17 916 -721 1653 -1298 l180
-141 70 6 70 5 440 391 c242 216 661 588 930 827 270 240 494 436 498 437 4 0
17 -21 29 -47z"/>
<path d="M10526 14097 c-11 -93 -44 -622 -40 -626 5 -5 526 -42 530 -38 2 2 5
39 7 83 l2 79 -157 10 c-86 6 -159 13 -162 16 -3 3 3 118 13 255 10 137 16
252 12 255 -3 4 -50 9 -103 12 l-97 6 -5 -52z"/>
<path d="M10010 14124 c-147 -22 -216 -57 -250 -125 -26 -50 -28 -124 -6 -168
31 -59 116 -103 227 -116 130 -16 169 -37 169 -92 0 -75 -124 -98 -182 -34
-15 17 -28 38 -28 46 0 9 -9 15 -22 15 -27 0 -167 -26 -173 -32 -11 -10 22
-83 54 -120 51 -60 98 -78 206 -78 224 0 345 85 345 243 0 125 -72 185 -260
213 -140 21 -160 29 -160 64 0 73 129 79 166 8 13 -24 20 -28 42 -24 15 3 58
11 95 17 67 11 68 12 62 38 -25 103 -148 165 -285 145z"/>
<path d="M11438 14032 c-8 -9 -63 -93 -123 -187 -60 -93 -143 -224 -186 -291
l-77 -121 101 -21 c66 -14 105 -18 112 -12 7 6 20 28 30 50 10 22 21 40 25 40
9 0 201 -40 222 -46 13 -4 18 -19 20 -62 l3 -57 104 -23 c57 -12 105 -21 107
-19 2 1 -5 57 -16 122 -10 66 -32 215 -50 330 -17 116 -33 222 -36 237 -5 25
-12 28 -102 48 -53 12 -102 23 -109 25 -6 2 -17 -4 -25 -13z m96 -330 c7 -98
7 -102 -12 -102 -37 0 -122 23 -122 33 0 6 26 56 58 113 66 118 65 118 76 -44z"/>
<path d="M9403 14016 c-50 -12 -94 -23 -97 -26 -5 -6 130 -649 138 -658 9 -9
188 33 193 45 4 11 -21 138 -92 468 -15 66 -29 135 -32 153 -3 18 -8 34 -12
36 -3 2 -47 -6 -98 -18z"/>
<path d="M12123 13827 c-14 -28 -256 -542 -270 -574 -3 -7 26 -26 73 -47 42
-20 78 -35 79 -34 1 2 48 103 105 225 57 123 105 221 107 219 4 -4 -9 -78 -63
-359 -13 -70 -24 -132 -24 -137 0 -6 30 -25 68 -41 l67 -31 38 44 c20 24 94
113 165 199 70 86 129 155 131 153 3 -3 -30 -75 -153 -337 l-55 -117 57 -29
c104 -52 89 -61 172 116 40 87 101 217 136 290 34 73 65 141 68 151 5 16 -12
28 -114 75 -66 32 -122 57 -124 57 -2 0 -63 -72 -136 -161 -72 -88 -134 -159
-135 -157 -2 2 13 93 34 203 21 110 35 203 32 207 -3 4 -59 31 -124 62 l-117
55 -17 -32z"/>
<path d="M8546 13719 c-107 -25 -237 -113 -270 -183 -24 -51 -21 -121 9 -172
48 -82 138 -101 315 -67 99 19 136 13 152 -23 26 -56 -31 -119 -107 -119 -36
0 -50 6 -77 32 l-33 31 -80 -44 c-44 -24 -81 -48 -83 -53 -5 -15 58 -81 97
-100 82 -41 155 -34 287 30 189 89 247 250 137 379 -26 30 -48 44 -88 56 -58
16 -95 14 -222 -12 -40 -8 -87 -14 -105 -12 -30 3 -33 6 -33 37 0 66 98 100
149 52 l25 -23 78 42 c43 23 82 45 87 50 14 13 -66 85 -110 98 -47 14 -72 14
-128 1z"/>
<path d="M10220 13334 c-843 -59 -1564 -333 -2195 -833 -146 -115 -443 -409
-552 -546 -439 -552 -684 -1144 -754 -1825 -7 -63 -12 -207 -12 -320 0 -219
11 -359 44 -560 38 -228 119 -510 214 -740 60 -144 206 -414 306 -565 148
-222 255 -352 454 -551 180 -181 344 -318 540 -450 1141 -771 2646 -875 3886
-268 591 290 1077 708 1440 1239 311 454 512 1006 570 1560 15 152 16 515 0
665 -106 1031 -678 1962 -1571 2556 -504 336 -1096 549 -1720 619 -139 16
-534 27 -650 19z"/>
<path d="M7725 13239 c-44 -33 -81 -66 -83 -73 -2 -10 165 -637 183 -684 4
-12 67 26 149 91 l28 22 -22 54 c-11 30 -17 57 -12 60 4 3 47 34 94 69 47 34
90 62 95 62 5 0 28 -14 51 -31 23 -17 46 -29 50 -27 20 8 162 114 162 121 0
10 -588 397 -603 396 -7 0 -48 -27 -92 -60z m206 -220 c52 -38 94 -74 94 -79
0 -10 -106 -92 -112 -87 -4 4 -83 226 -83 232 0 9 7 4 101 -66z"/>
<path d="M13144 12909 l-227 -251 58 -52 c33 -28 63 -51 69 -51 6 0 82 80 170
177 88 98 161 176 164 174 2 -3 -48 -104 -112 -225 -64 -121 -116 -224 -115
-228 0 -4 25 -29 55 -56 l54 -47 138 91 c75 50 155 103 177 119 22 15 60 40
85 55 55 35 56 35 -119 -160 -74 -82 -144 -161 -155 -174 l-21 -23 59 -54 c33
-30 63 -53 68 -52 10 4 448 491 448 499 0 10 -189 179 -199 179 -5 0 -84 -50
-176 -111 -92 -61 -169 -109 -171 -107 -2 2 40 86 92 187 53 100 92 186 88
190 -5 4 -50 44 -100 89 -50 45 -94 82 -97 82 -3 0 -108 -113 -233 -251z"/>
<path d="M7185 12768 c-94 -100 -192 -206 -219 -236 l-49 -53 34 -35 c19 -20
46 -45 62 -56 l27 -19 73 77 73 77 184 -172 c101 -94 189 -170 194 -169 6 2
40 34 76 71 l65 68 -70 67 c-39 37 -124 117 -189 178 l-119 111 73 77 74 77
-60 60 -60 59 -169 -182z"/>
<path d="M6753 12247 l-61 -83 268 -202 c147 -111 271 -202 276 -202 10 1 129
159 123 164 -16 13 -535 402 -539 404 -4 1 -33 -35 -67 -81z"/>
<path d="M14120 12230 c-58 -15 -210 -55 -338 -88 -128 -33 -235 -62 -238 -65
-8 -8 108 -167 121 -167 7 0 32 7 55 15 23 8 46 13 50 10 12 -7 130 -182 130
-192 0 -5 -13 -27 -30 -49 -16 -21 -30 -42 -30 -46 0 -13 111 -163 121 -163 8
0 395 554 405 580 5 12 -116 187 -131 191 -5 1 -57 -11 -115 -26z m30 -175 c0
-9 -141 -185 -148 -185 -12 0 -85 111 -78 118 8 7 195 70 214 71 6 1 12 -1 12
-4z"/>
<path d="M6578 11886 c-21 -7 -49 -21 -63 -30 -55 -36 -134 -173 -154 -265
-35 -164 109 -281 257 -209 25 12 85 61 133 110 70 70 94 88 117 88 59 0 81
-71 42 -135 -25 -41 -68 -59 -118 -51 l-38 6 -37 -83 c-20 -45 -37 -85 -37
-89 0 -12 63 -28 109 -28 25 0 64 9 86 19 83 37 183 184 206 302 21 105 -30
207 -125 250 -94 42 -175 10 -293 -115 -43 -46 -88 -88 -100 -94 -66 -36 -84
68 -21 125 12 11 35 18 60 18 40 0 40 0 79 77 21 43 39 82 39 87 0 23 -96 34
-142 17z"/>
<path d="M14122 11510 c-23 -16 -54 -49 -69 -72 -24 -35 -28 -51 -27 -107 2
-120 69 -242 158 -286 60 -30 113 -32 193 -7 58 19 423 171 423 177 0 9 -73
171 -80 179 -5 5 -100 -30 -224 -83 -118 -50 -226 -91 -239 -91 -27 0 -67 41
-67 68 0 8 18 31 39 51 l40 37 -45 74 c-24 41 -48 78 -52 82 -5 5 -27 -5 -50
-22z"/>
<path d="M6243 11161 c-29 -14 -49 -33 -69 -66 -30 -52 -156 -446 -146 -457 4
-3 84 -30 177 -58 94 -29 235 -72 314 -96 80 -25 148 -41 152 -37 12 13 62
183 56 190 -3 3 -61 22 -128 42 -67 20 -124 42 -127 49 -2 6 9 25 25 40 27 27
64 37 276 78 16 3 30 11 32 17 1 7 16 56 33 110 35 115 45 108 -115 78 -106
-21 -175 -49 -192 -78 -9 -16 -10 -15 -11 7 -1 112 -92 200 -205 200 -16 0
-49 -9 -72 -19z m115 -211 c27 -25 29 -76 6 -144 -16 -45 -17 -47 -47 -40 -52
11 -102 31 -101 40 1 5 9 35 18 66 26 91 76 122 124 78z"/>
<path d="M14201 10883 c0 -10 11 -56 22 -103 l22 -85 59 -5 60 -5 28 -110 c15
-60 26 -115 23 -122 -2 -7 -22 -21 -44 -32 -22 -12 -42 -24 -45 -29 -9 -15 46
-212 58 -205 53 31 579 399 582 407 5 14 -41 205 -52 215 -5 5 -157 25 -339
45 -181 20 -340 39 -352 42 -17 3 -23 0 -22 -13z m499 -213 c88 0 88 -1 -47
-81 l-98 -59 -12 42 c-7 23 -16 57 -19 76 l-7 35 54 -6 c30 -4 88 -7 129 -7z"/>
<path d="M5986 10347 c-11 -37 -47 -539 -40 -546 10 -8 662 -67 668 -60 4 4
55 563 52 566 -1 2 -36 4 -77 5 l-74 3 -15 -172 c-8 -94 -18 -174 -22 -178 -3
-3 -34 -3 -68 1 l-63 7 7 76 c3 42 9 115 13 162 l6 86 -63 7 c-34 4 -65 5 -68
2 -2 -3 -11 -76 -18 -162 -7 -86 -14 -157 -16 -159 -2 -2 -27 0 -55 2 -62 6
-58 -15 -38 198 7 83 10 153 7 156 -4 4 -35 9 -70 13 -46 4 -64 2 -66 -7z"/>
<path d="M14675 10104 c-165 -6 -303 -13 -307 -13 -5 -1 -8 -46 -8 -101 l0
-100 129 0 128 0 5 -97 c6 -114 26 -170 74 -212 64 -56 185 -66 262 -21 90 53
103 120 85 438 l-6 122 -31 -1 c-17 -1 -166 -8 -331 -15z m235 -263 c0 -75
-21 -105 -74 -105 -20 0 -43 7 -53 16 -16 17 -37 124 -27 140 3 4 39 8 80 8
l74 0 0 -59z"/>
<path d="M5946 9533 c3 -27 9 -72 12 -102 8 -65 -19 -55 280 -107 122 -21 222
-42 222 -45 0 -3 -98 -50 -217 -104 -120 -54 -223 -102 -229 -107 -7 -5 -6
-36 3 -105 7 -54 14 -101 16 -105 1 -4 145 68 320 160 l319 167 -6 80 c-12
157 -7 148 -94 168 -96 23 -227 53 -451 106 -96 23 -176 41 -178 41 -2 0 -1
-21 3 -47z"/>
<path d="M14379 9538 c0 -2 -9 -47 -18 -101 l-18 -97 34 -20 c19 -11 38 -20
42 -20 25 0 27 -31 7 -140 l-21 -115 -53 -6 c-29 -4 -56 -10 -60 -14 -7 -7
-41 -198 -36 -204 3 -3 104 14 422 74 268 49 292 55 292 68 1 7 9 56 19 110
l18 98 -26 18 c-37 26 -589 351 -595 351 -3 0 -6 -1 -7 -2z m316 -380 c58 -29
105 -56 105 -59 0 -4 -46 -12 -102 -19 -57 -6 -111 -14 -120 -16 -13 -4 -18 0
-18 14 0 23 22 132 26 132 2 0 51 -24 109 -52z"/>
<path d="M6433 8756 c-172 -50 -315 -94 -317 -97 -5 -5 39 -173 50 -190 4 -6
639 172 649 182 8 9 -49 192 -60 194 -5 2 -150 -38 -322 -89z"/>
<path d="M14180 8663 c-19 -48 -35 -91 -35 -96 0 -4 53 -30 118 -57 65 -26
121 -50 124 -54 5 -5 -58 -175 -76 -204 -5 -9 -40 1 -131 38 -68 28 -127 47
-131 43 -13 -15 -77 -183 -71 -187 17 -10 611 -246 620 -246 8 0 82 167 82
184 0 2 -37 18 -82 36 -46 18 -95 39 -109 46 l-27 13 40 98 c22 54 44 102 48
106 4 5 52 -10 107 -32 55 -23 104 -41 109 -41 15 0 83 184 70 192 -16 9 -608
248 -615 248 -4 0 -22 -39 -41 -87z"/>
<path d="M6660 8404 c-113 -53 -251 -117 -307 -144 l-103 -49 40 -83 c22 -46
44 -84 48 -86 4 -1 80 31 167 72 88 41 162 72 164 70 2 -2 -47 -87 -108 -190
-61 -102 -111 -192 -111 -200 0 -22 73 -164 85 -164 9 0 201 88 503 230 56 27
102 52 102 55 0 3 -17 42 -37 86 -31 69 -40 80 -57 76 -12 -3 -85 -35 -164
-72 -78 -37 -145 -65 -148 -63 -2 3 46 89 107 192 l111 187 -38 85 c-21 47
-40 87 -44 89 -3 2 -98 -39 -210 -91z"/>
<path d="M13833 7923 c-47 -79 -51 -88 -35 -98 74 -50 547 -328 559 -329 10
-1 35 30 66 82 27 45 48 84 46 86 -8 8 -557 336 -570 341 -9 3 -32 -25 -66
-82z"/>
<path d="M7089 7662 c-47 -24 -359 -268 -375 -293 -6 -10 106 -158 120 -159 5
0 87 63 182 139 100 80 186 142 204 146 63 14 147 -68 136 -134 -7 -44 -15
-52 -201 -203 -88 -72 -161 -134 -163 -139 -3 -7 116 -159 125 -159 17 0 345
281 375 321 76 103 72 197 -13 324 -88 131 -167 184 -275 185 -47 0 -73 -6
-115 -28z"/>
<path d="M13522 7500 c-34 -43 -62 -80 -62 -83 0 -2 88 -75 195 -162 107 -86
195 -160 195 -164 0 -4 -25 -38 -57 -77 -31 -38 -60 -74 -64 -80 -6 -7 15 -30
56 -62 l64 -52 55 68 c30 37 121 148 201 247 l147 180 -49 43 c-81 72 -74 72
-145 -17 -35 -44 -66 -80 -70 -80 -4 -1 -92 67 -195 151 -104 83 -193 155
-198 159 -7 5 -36 -24 -73 -71z"/>
<path d="M12830 6652 c-22 -18 -55 -31 -94 -37 l-60 -10 -9 -44 c-5 -25 -24
-65 -43 -89 -19 -25 -34 -48 -34 -52 0 -3 13 -19 29 -34 22 -21 30 -40 36 -82
7 -59 24 -74 81 -74 14 0 45 -13 69 -30 53 -36 65 -37 94 -6 16 17 38 26 78
31 79 10 83 12 83 55 0 27 9 49 35 83 19 25 35 49 35 54 0 5 -11 20 -25 36
-17 17 -29 47 -36 84 -12 65 -19 73 -69 73 -23 0 -52 12 -86 34 l-51 34 -33
-26z"/>
<path d="M8021 6606 c-14 -15 -40 -27 -65 -31 -99 -15 -96 -13 -96 -57 0 -31
-8 -49 -35 -82 -42 -51 -43 -62 -11 -95 15 -16 30 -50 38 -86 l13 -60 44 -3
c28 -2 60 -14 85 -31 23 -15 46 -31 52 -34 7 -4 28 6 48 22 26 21 51 30 94 35
l59 7 6 45 c3 31 16 58 41 91 20 25 36 49 36 53 0 3 -13 19 -29 34 -19 19 -32
43 -36 70 -11 73 -13 76 -54 76 -25 0 -54 11 -91 35 -30 19 -60 35 -66 35 -6
0 -21 -11 -33 -24z"/>
<path d="M11760 6274 c-75 -20 -138 -61 -175 -113 -27 -39 -30 -50 -30 -119 0
-85 20 -135 72 -184 86 -82 225 -75 300 17 37 44 44 37 50 -49 5 -55 3 -65
-18 -88 -36 -39 -62 -43 -97 -13 l-30 25 -82 -38 -82 -37 22 -28 c39 -50 94
-70 175 -65 122 8 224 70 266 163 55 120 -15 385 -127 484 -69 60 -138 73
-244 45z m99 -130 c29 -21 51 -72 51 -119 0 -44 -45 -95 -83 -95 -54 0 -107
72 -107 145 0 70 80 110 139 69z"/>
<path d="M9298 6162 c-46 -48 -115 -80 -209 -96 -35 -6 -37 -9 -53 -71 -9 -35
-16 -67 -16 -70 0 -12 83 -4 141 15 35 10 65 18 66 16 2 -2 -19 -99 -46 -217
-27 -118 -47 -216 -45 -218 7 -7 159 -41 170 -37 6 2 16 30 23 62 7 33 40 175
72 316 32 142 59 266 59 276 0 15 -14 22 -70 34 -70 15 -70 15 -92 -10z"/>
<path d="M10883 6086 c-66 -21 -111 -54 -141 -104 -23 -40 -27 -58 -27 -122 0
-95 28 -150 99 -197 41 -28 57 -33 108 -33 60 0 121 22 147 54 21 26 31 19 31
-21 -1 -133 -72 -196 -139 -122 l-28 31 -82 -22 c-53 -15 -81 -27 -81 -36 0
-8 20 -34 43 -58 53 -53 118 -72 205 -61 127 15 217 85 248 191 22 76 15 222
-16 317 -26 85 -101 169 -165 186 -53 14 -150 13 -202 -3z m147 -126 c27 -27
40 -63 40 -111 0 -52 -43 -99 -90 -99 -43 0 -89 47 -92 92 -3 63 3 93 24 115
28 30 90 31 118 3z"/>
<path d="M10030 6061 c-101 -33 -156 -101 -167 -205 -8 -78 12 -133 66 -187
36 -37 57 -49 100 -58 57 -12 110 -4 146 23 31 24 38 19 30 -21 -22 -120 -85
-169 -147 -115 -10 8 -18 23 -18 34 0 16 -9 18 -89 18 -50 0 -92 -4 -95 -9 -9
-15 43 -106 74 -129 16 -12 55 -29 87 -37 150 -39 279 8 337 124 61 119 68
329 16 431 -25 49 -89 104 -141 119 -53 16 -167 23 -199 12z m141 -121 c53
-29 65 -146 19 -195 -18 -19 -34 -25 -66 -25 -60 0 -84 32 -84 112 0 52 3 63
29 89 31 30 67 37 102 19z"/>
</g>
</svg>
